<?xml version="1.0" encoding="UTF-8"?>
<svg id="Layer_2" data-name="Layer 2" xmlns="http://www.w3.org/2000/svg" viewBox="0 0 219.51 36.7">
  <g id="Layer_2-2" data-name="Layer 2">
    <g>
      <g>
        <polygon points="36.71 0 36.71 6.47 32.91 6.47 28.38 0 36.71 0"/>
        <path d="M36.71,12.28v6.08c0,.97-.08,1.93-.23,2.86-.68,4.43-2.98,8.34-6.24,11.12-3.2,2.72-7.36,4.36-11.88,4.36C8.22,36.7,0,28.49,0,18.35c0-2.13.36-4.17,1.03-6.08.76-2.15,1.9-4.11,3.34-5.82C7.73,2.51,12.75,0,18.36,0h3.26l4.54,6.46h-7.8c-4.35,0-8.15,2.33-10.22,5.82-1.06,1.78-1.67,3.86-1.67,6.08,0,6.56,5.33,11.88,11.89,11.88s11.88-5.32,11.88-11.88v-6.08h6.47Z"/>
      </g>
      <g>
        <g>
          <path d="M77.15,34.46c-.3,0-.6-.05-.88-.15s-.5-.23-.65-.38l.17-.33c.14.14.34.26.58.35.24.1.5.14.77.14s.47-.03.63-.1c.16-.06.28-.15.36-.26.08-.11.11-.23.11-.36,0-.16-.05-.29-.14-.39-.09-.1-.21-.17-.36-.23-.15-.06-.31-.11-.49-.15-.18-.04-.36-.09-.54-.14-.18-.05-.34-.11-.5-.2s-.27-.19-.36-.32c-.09-.13-.14-.31-.14-.53,0-.2.05-.39.16-.56.11-.17.27-.31.49-.41s.51-.16.86-.16c.23,0,.46.03.69.1.23.06.42.15.59.27l-.15.35c-.17-.12-.36-.2-.56-.26-.2-.06-.39-.08-.57-.08-.25,0-.45.03-.61.1-.16.07-.28.16-.35.27-.08.11-.11.24-.11.38,0,.16.05.29.14.39.09.1.21.17.36.23.15.06.31.1.5.15.18.04.36.09.54.14.18.05.34.12.49.2s.27.19.36.32c.09.13.14.31.14.52,0,.2-.06.38-.16.55-.11.17-.28.31-.5.41s-.51.16-.86.16Z"/>
          <path d="M82.94,34.46c-.31,0-.6-.05-.86-.16-.26-.1-.49-.25-.69-.44-.19-.19-.34-.41-.45-.66-.11-.25-.16-.53-.16-.83s.05-.58.16-.83c.11-.25.26-.47.45-.66.19-.19.42-.34.68-.44s.55-.16.86-.16.59.05.85.16.49.25.68.44c.19.19.34.41.45.66.11.25.16.53.16.83s-.05.58-.16.83c-.11.25-.26.47-.45.66-.19.19-.42.33-.68.44s-.55.16-.85.16ZM82.94,34.07c.25,0,.47-.04.68-.13s.39-.2.54-.36c.15-.15.27-.33.36-.54.09-.2.13-.43.13-.68s-.04-.47-.13-.68c-.09-.21-.21-.38-.36-.54-.15-.15-.33-.27-.54-.36s-.44-.13-.68-.13-.48.04-.69.13c-.21.08-.4.2-.55.36-.16.15-.28.33-.36.54-.09.2-.13.43-.13.68s.04.47.13.67.21.39.36.54.34.27.55.36c.21.08.44.13.69.13Z"/>
          <path d="M89.37,34.46c-.31,0-.59-.05-.85-.16s-.49-.25-.68-.44-.34-.41-.45-.66c-.11-.25-.16-.53-.16-.83s.05-.58.16-.83c.11-.25.26-.47.45-.66.19-.19.42-.33.68-.44s.55-.16.85-.16.58.05.84.15.48.25.66.45l-.28.27c-.17-.17-.35-.3-.56-.37-.2-.08-.42-.11-.66-.11-.25,0-.47.04-.69.13-.21.08-.39.2-.55.36-.16.15-.28.33-.37.54-.09.2-.13.43-.13.68s.04.47.13.68c.09.21.21.39.37.54.16.15.34.27.55.36.21.08.44.13.69.13s.45-.04.66-.12c.2-.08.39-.2.56-.38l.28.28c-.18.2-.4.35-.66.45-.26.1-.54.15-.84.15Z"/>
          <path d="M93.32,34.42v-4.1h.43v4.1h-.43Z"/>
          <path d="M95.96,34.42l1.87-4.1h.43l1.87,4.1h-.46l-1.72-3.85h.18l-1.72,3.85h-.45ZM96.7,33.33l.13-.35h2.38l.13.35h-2.64Z"/>
          <path d="M102.34,34.42v-4.1h.43v3.73h2.3v.38h-2.73Z"/>
          <path d="M110.37,34.42v-4.1h.36l1.87,3.2h-.19l1.86-3.2h.36v4.1h-.42v-3.45h.1l-1.71,2.93h-.2l-1.72-2.93h.11v3.45h-.42Z"/>
          <path d="M117.92,34.05h2.47v.38h-2.9v-4.1h2.81v.38h-2.38v3.35ZM117.87,32.16h2.17v.37h-2.17v-.37Z"/>
          <path d="M122.93,34.42v-4.1h1.67c.44,0,.82.09,1.15.26.33.17.59.41.77.72.18.31.27.66.27,1.07s-.09.76-.27,1.07c-.18.31-.44.55-.77.72-.33.17-.71.26-1.15.26h-1.67ZM123.36,34.05h1.21c.36,0,.68-.07.95-.21s.48-.34.62-.59c.15-.25.22-.54.22-.87s-.07-.62-.22-.87c-.15-.25-.36-.45-.62-.59s-.58-.21-.95-.21h-1.21v3.35Z"/>
          <path d="M129.29,34.42v-4.1h.43v4.1h-.43Z"/>
          <path d="M131.92,34.42l1.87-4.1h.43l1.87,4.1h-.46l-1.72-3.85h.18l-1.72,3.85h-.45ZM132.66,33.33l.13-.35h2.38l.13.35h-2.64Z"/>
          <path d="M141.04,33.02v-.36h1.53v.36h-1.53Z"/>
          <path d="M149.98,34.46c-.31,0-.6-.05-.86-.16-.26-.1-.49-.25-.69-.44-.19-.19-.34-.41-.45-.66-.11-.25-.16-.53-.16-.83s.05-.58.16-.83c.11-.25.26-.47.45-.66.2-.19.43-.33.69-.44s.55-.16.86-.16.6.05.86.15c.26.1.48.25.67.45l-.27.28c-.17-.17-.36-.29-.57-.37-.21-.07-.43-.11-.67-.11-.25,0-.49.04-.7.13s-.4.2-.56.36c-.16.15-.28.33-.37.54-.09.2-.13.43-.13.68s.04.47.13.67.21.39.37.54.34.27.56.36.44.13.69.13c.23,0,.46-.04.66-.11s.4-.19.58-.36l.25.33c-.2.17-.42.3-.69.39s-.54.13-.82.13ZM151.07,33.89v-1.51h.42v1.56l-.42-.05Z"/>
          <path d="M154.23,34.42v-4.1h1.53c.35,0,.65.06.9.17.25.11.44.27.58.48.13.21.2.46.2.76s-.07.54-.2.75c-.13.21-.33.37-.58.48-.25.11-.55.17-.9.17h-1.29l.19-.2v1.5h-.43ZM154.66,32.96l-.19-.2h1.28c.41,0,.72-.09.93-.27.21-.18.32-.43.32-.76s-.11-.58-.32-.76-.52-.27-.93-.27h-1.28l.19-.21v2.47ZM157.03,34.42l-1.05-1.49h.47l1.06,1.49h-.47Z"/>
          <path d="M159.33,34.42l1.87-4.1h.43l1.87,4.1h-.46l-1.72-3.85h.18l-1.72,3.85h-.45ZM160.07,33.33l.13-.35h2.38l.13.35h-2.64Z"/>
          <path d="M165.71,34.42v-4.1h1.53c.35,0,.65.06.9.17.25.11.44.27.58.48.13.21.2.46.2.76s-.07.54-.2.75c-.13.21-.33.37-.58.48-.25.11-.55.17-.9.17h-1.29l.19-.21v1.5h-.43ZM166.14,32.96l-.19-.21h1.28c.41,0,.72-.09.93-.27.21-.18.32-.43.32-.75s-.11-.58-.32-.76-.52-.27-.93-.27h-1.28l.19-.21v2.47Z"/>
          <path d="M171.87,34.42h-.43v-4.1h.43v4.1ZM174.48,32.53h-2.65v-.38h2.65v.38ZM174.44,30.32h.43v4.1h-.43v-4.1Z"/>
          <path d="M177.72,34.42v-4.1h.43v4.1h-.43Z"/>
          <path d="M182.8,34.46c-.31,0-.59-.05-.85-.16s-.49-.25-.68-.44-.34-.41-.45-.66c-.11-.25-.16-.53-.16-.83s.05-.58.16-.83c.11-.25.26-.47.45-.66.19-.19.42-.33.68-.44s.55-.16.85-.16.58.05.84.15.48.25.66.45l-.28.27c-.17-.17-.35-.3-.56-.37-.2-.08-.42-.11-.66-.11-.25,0-.47.04-.69.13-.21.08-.39.2-.55.36-.16.15-.28.33-.37.54-.09.2-.13.43-.13.68s.04.47.13.68c.09.21.21.39.37.54.16.15.34.27.55.36.21.08.44.13.69.13s.45-.04.66-.12c.2-.08.39-.2.56-.38l.28.28c-.18.2-.4.35-.66.45-.26.1-.54.15-.84.15Z"/>
          <path d="M189.81,34.42v-4.1h1.67c.44,0,.82.09,1.15.26.33.17.59.41.77.72.18.31.27.66.27,1.07s-.09.76-.27,1.07c-.18.31-.44.55-.77.72-.33.17-.71.26-1.15.26h-1.67ZM190.24,34.05h1.21c.36,0,.68-.07.95-.21s.48-.34.62-.59c.15-.25.22-.54.22-.87s-.07-.62-.22-.87c-.15-.25-.36-.45-.62-.59s-.58-.21-.95-.21h-1.21v3.35Z"/>
          <path d="M196.6,34.05h2.47v.38h-2.9v-4.1h2.81v.38h-2.38v3.35ZM196.55,32.16h2.17v.37h-2.17v-.37Z"/>
          <path d="M202.74,34.46c-.3,0-.6-.05-.88-.15s-.5-.23-.65-.38l.17-.33c.14.14.34.26.58.35.24.1.5.14.77.14s.47-.03.63-.1c.16-.06.28-.15.36-.26.08-.11.11-.23.11-.36,0-.16-.05-.29-.14-.39-.09-.1-.21-.17-.36-.23-.15-.06-.31-.11-.49-.15-.18-.04-.36-.09-.54-.14-.18-.05-.34-.11-.5-.2s-.27-.19-.36-.32c-.09-.13-.14-.31-.14-.53,0-.2.05-.39.16-.56.11-.17.27-.31.49-.41s.51-.16.86-.16c.23,0,.46.03.69.1.23.06.42.15.59.27l-.15.35c-.17-.12-.36-.2-.56-.26-.2-.06-.39-.08-.57-.08-.25,0-.45.03-.61.1-.16.07-.28.16-.35.27-.08.11-.11.24-.11.38,0,.16.05.29.14.39.09.1.21.17.36.23.15.06.31.1.5.15.18.04.36.09.54.14.18.05.34.12.49.2s.27.19.36.32c.09.13.14.31.14.52,0,.2-.06.38-.16.55-.11.17-.28.31-.5.41s-.51.16-.86.16Z"/>
          <path d="M206.74,34.42v-4.1h.43v4.1h-.43Z"/>
          <path d="M211.83,34.46c-.31,0-.6-.05-.86-.16-.26-.1-.49-.25-.69-.44-.19-.19-.34-.41-.45-.66-.11-.25-.16-.53-.16-.83s.05-.58.16-.83c.11-.25.26-.47.45-.66.2-.19.43-.33.69-.44s.55-.16.86-.16.6.05.86.15c.26.1.48.25.67.45l-.27.28c-.17-.17-.36-.29-.57-.37-.21-.07-.43-.11-.67-.11-.25,0-.49.04-.7.13s-.4.2-.56.36c-.16.15-.28.33-.37.54-.09.2-.13.43-.13.68s.04.47.13.67.21.39.37.54.34.27.56.36.44.13.69.13c.23,0,.46-.04.66-.11s.4-.19.58-.36l.25.33c-.2.17-.42.3-.69.39s-.54.13-.82.13ZM212.92,33.89v-1.51h.42v1.56l-.42-.05Z"/>
          <path d="M216.08,34.42v-4.1h.36l2.83,3.56h-.19v-3.56h.43v4.1h-.36l-2.82-3.56h.19v3.56h-.43Z"/>
        </g>
        <g>
          <path d="M156.57,10.54c.67-.66,1.46-1.15,2.37-1.53.91-.36,1.9-.54,2.98-.54s2,.19,2.91.55c.9.38,1.72.94,2.44,1.7l1.77-1.72c-.87-.97-1.93-1.7-3.16-2.21-1.25-.5-2.6-.74-4.06-.74s-2.79.24-4.01.71c-1.22.48-2.28,1.17-3.19,2.04-.9.89-1.61,1.9-2.12,3.08s-.76,2.48-.76,3.89.25,2.71.76,3.89c.51,1.17,1.21,2.2,2.11,3.07.9.89,1.96,1.57,3.18,2.04.34.13.68.24,1.03.35.5.13,1.02.23,1.56.3v-.05s.44-2.36.44-2.36c-.55-.07-1.07-.19-1.57-.36-.11-.03-.2-.07-.3-.11-.91-.36-1.7-.87-2.37-1.52-.67-.66-1.19-1.43-1.56-2.32-.38-.9-.56-1.88-.56-2.92s.19-2.03.56-2.92c.36-.9.89-1.66,1.56-2.32ZM164.83,22.53c-.13.05-.28.11-.43.15-.5.19-1.02.3-1.56.35l.4,2.33v.04c.55-.05,1.07-.15,1.58-.3.36-.11.71-.23,1.05-.36,1.23-.5,2.29-1.25,3.16-2.23l-1.77-1.7c-.72.78-1.54,1.35-2.44,1.72Z"/>
          <path d="M177.85,25.29V6.27h2.23l12.58,15.62h-1.17V6.27h2.72v19.02h-2.23l-12.58-15.62h1.17v15.62h-2.72Z"/>
          <path d="M203.83,25.25V6.24h7.42c1.67,0,3.09.26,4.26.79,1.18.53,2.08,1.29,2.72,2.28.63,1,.95,2.18.95,3.56s-.32,2.56-.95,3.55-1.54,1.74-2.72,2.27c-1.18.53-2.6.79-4.26.79h-5.92l1.22-1.25v7.04h-2.72ZM206.55,18.49l-1.22-1.33h5.84c1.74,0,3.06-.38,3.95-1.13.9-.75,1.35-1.81,1.35-3.16s-.45-2.41-1.35-3.15c-.9-.74-2.21-1.11-3.95-1.11h-5.84l1.22-1.36v11.25ZM216.54,25.25l-4.84-6.9h2.91l4.89,6.9h-2.96Z"/>
          <path d="M59.21,25.43c-1.47,0-2.82-.24-4.05-.72-1.23-.48-2.3-1.16-3.2-2.04-.91-.88-1.61-1.91-2.12-3.08-.51-1.18-.76-2.47-.76-3.88s.25-2.71.76-3.88c.51-1.18,1.22-2.2,2.13-3.08s1.99-1.56,3.22-2.04c1.23-.48,2.59-.72,4.07-.72s2.88.24,4.13.73,2.31,1.22,3.18,2.2l-1.68,1.68c-.78-.76-1.63-1.32-2.54-1.67s-1.91-.53-2.97-.53-2.1.18-3.03.54c-.93.36-1.74.87-2.42,1.52-.68.65-1.2,1.43-1.58,2.32-.37.9-.56,1.87-.56,2.92s.19,2,.56,2.89c.37.9.9,1.68,1.58,2.34.68.66,1.48,1.17,2.4,1.53.92.36,1.93.54,3.02.54,1.01,0,1.99-.16,2.92-.48.93-.32,1.8-.85,2.59-1.59l1.55,2.06c-.94.8-2.04,1.4-3.3,1.81-1.26.41-2.56.61-3.9.61ZM63.8,22.66v-7.06h2.61v7.42l-2.61-.35Z"/>
          <path d="M75.63,25.43V6.41h7.42c1.67,0,3.09.26,4.26.79,1.18.53,2.08,1.29,2.72,2.28.63,1,.95,2.18.95,3.56s-.32,2.56-.95,3.55-1.54,1.74-2.72,2.27c-1.18.53-2.6.79-4.26.79h-5.92l1.22-1.25v7.04h-2.72ZM78.35,18.66l-1.22-1.33h5.84c1.74,0,3.06-.38,3.95-1.13.9-.75,1.35-1.81,1.35-3.16s-.45-2.41-1.35-3.15c-.9-.74-2.21-1.11-3.95-1.11h-5.84l1.22-1.36v11.25ZM88.34,25.43l-4.84-6.9h2.91l4.89,6.9h-2.96Z"/>
          <path d="M100.78,25.43V6.41h2.72v19.02h-2.72ZM103.17,20.84l-.14-3.31,10.78-11.11h3.1l-8.34,8.8-1.52,1.68-3.89,3.94ZM114.26,25.43l-7.8-9.07,1.82-2.01,9.16,11.08h-3.18Z"/>
          <path d="M124.63,25.43V6.41h2.23l8.53,14.37h-1.2l8.42-14.37h2.23l.03,19.02h-2.61l-.03-14.91h.62l-7.5,12.6h-1.25l-7.55-12.6h.68v14.91h-2.61Z"/>
        </g>
      </g>
    </g>
  </g>
</svg>